<svg xmlns="http://www.w3.org/2000/svg" width="641.2373046875" height="644.3358764648438" viewBox="-322.0618896484375 -301.2956848144531 641.2373046875 644.3358764648438"><title>Neo4j Graph Visualization</title><desc>Created using Neo4j (http://www.neo4j.com/)</desc><g class="layer relationships"><g class="relationship" transform="translate(6.48454089554562 37.05388361380408) rotate(412.88667962150555)"><path class="b-outline" fill="#A5ABB6" stroke="none" d="M 25 0.5 L 48.073883173080006 0.5 L 48.073883173080006 -0.5 L 25 -0.5 Z M 102.53091442308 0.5 L 125.60479759616001 0.5 L 125.60479759616001 3.5 L 132.60479759616 0 L 125.60479759616001 -3.5 L 125.60479759616001 -0.5 L 102.53091442308 -0.5 Z"/><text text-anchor="middle" pointer-events="none" font-size="8px" fill="#000000" x="75.30239879808" y="3" font-family="Helvetica Neue, Helvetica, Arial, sans-serif">SE_TROUVE</text></g><g class="relationship" transform="translate(6.48454089554562 37.05388361380408) rotate(315.4851399116905)"><path class="b-outline" fill="#A5ABB6" stroke="none" d="M 25 0.5 L 42.256754995724805 0.5 L 42.256754995724805 -0.5 L 25 -0.5 Z M 97.7489424957248 0.5 L 115.00569749144961 0.5 L 115.00569749144961 3.5 L 122.00569749144961 0 L 115.00569749144961 -3.5 L 115.00569749144961 -0.5 L 97.7489424957248 -0.5 Z"/><text text-anchor="middle" pointer-events="none" font-size="8px" fill="#000000" x="70.0028487457248" y="3" font-family="Helvetica Neue, Helvetica, Arial, sans-serif">APPARTIENT</text></g><g class="relationship" transform="translate(6.48454089554562 37.05388361380408) rotate(357.906718378557)"><path class="b-outline" fill="#A5ABB6" stroke="none" d="M 25 0.5 L 48.11839589003638 0.5 L 48.11839589003638 -0.5 L 25 -0.5 Z M 106.12620839003638 0.5 L 129.24460428007276 0.5 L 129.24460428007276 3.5 L 136.24460428007276 0 L 129.24460428007276 -3.5 L 129.24460428007276 -0.5 L 106.12620839003638 -0.5 Z"/><text text-anchor="middle" pointer-events="none" font-size="8px" fill="#000000" x="77.12230214003638" y="3" font-family="Helvetica Neue, Helvetica, Arial, sans-serif">ENREGISTRE</text></g><g class="relationship" transform="translate(6.48454089554562 37.05388361380408) rotate(272.92118882546157)"><path class="b-outline" fill="#A5ABB6" stroke="none" d="M 25 0.5 L 48.517945955205434 0.5 L 48.517945955205434 -0.5 L 25 -0.5 Z M 106.52575845520543 0.5 L 130.04370441041087 0.5 L 130.04370441041087 3.5 L 137.04370441041087 0 L 130.04370441041087 -3.5 L 130.04370441041087 -0.5 L 106.52575845520543 -0.5 Z"/><text text-anchor="middle" pointer-events="none" font-size="8px" fill="#000000" x="77.52185220520543" y="3" font-family="Helvetica Neue, Helvetica, Arial, sans-serif">ENREGISTRE</text></g><g class="relationship" transform="translate(6.48454089554562 37.05388361380408) rotate(222.19713157200738)"><path class="b-outline" fill="#A5ABB6" stroke="none" d="M 25 0.5 L 46.8176616215449 0.5 L 46.8176616215449 -0.5 L 25 -0.5 Z M 104.8254741215449 0.5 L 126.6431357430898 0.5 L 126.6431357430898 3.5 L 133.6431357430898 0 L 126.6431357430898 -3.5 L 126.6431357430898 -0.5 L 104.8254741215449 -0.5 Z"/><text text-anchor="middle" pointer-events="none" font-size="8px" fill="#000000" x="75.8215678715449" y="3" transform="rotate(180 75.8215678715449 0)" font-family="Helvetica Neue, Helvetica, Arial, sans-serif">ENREGISTRE</text></g><g class="relationship" transform="translate(6.48454089554562 37.05388361380408) rotate(527.5838389139775)"><path class="b-outline" fill="#A5ABB6" stroke="none" d="M 25 0.5 L 46.00516529339673 0.5 L 46.00516529339673 -0.5 L 25 -0.5 Z M 104.01297779339673 0.5 L 125.01814308679346 0.5 L 125.01814308679346 3.5 L 132.01814308679346 0 L 125.01814308679346 -3.5 L 125.01814308679346 -0.5 L 104.01297779339673 -0.5 Z"/><text text-anchor="middle" pointer-events="none" font-size="8px" fill="#000000" x="75.00907154339673" y="3" transform="rotate(180 75.00907154339673 0)" font-family="Helvetica Neue, Helvetica, Arial, sans-serif">ENREGISTRE</text></g><g class="relationship" transform="translate(6.48454089554562 37.05388361380408) rotate(470.3213097233842)"><path class="b-outline" fill="#A5ABB6" stroke="none" d="M 25 0.5 L 45.755251253075016 0.5 L 45.755251253075016 -0.5 L 25 -0.5 Z M 103.76306375307502 0.5 L 124.51831500615003 0.5 L 124.51831500615003 3.5 L 131.51831500615003 0 L 124.51831500615003 -3.5 L 124.51831500615003 -0.5 L 103.76306375307502 -0.5 Z"/><text text-anchor="middle" pointer-events="none" font-size="8px" fill="#000000" x="74.75915750307502" y="3" transform="rotate(180 74.75915750307502 0)" font-family="Helvetica Neue, Helvetica, Arial, sans-serif">ENREGISTRE</text></g><g class="relationship" transform="translate(101.58223514993203 162.73483194260135) rotate(392.39250263923094)"><path class="b-outline" fill="#A5ABB6" stroke="none" d="M 25 0.5 L 36.82765650027086 0.5 L 36.82765650027086 -0.5 L 25 -0.5 Z M 102.10500025027086 0.5 L 113.93265675054172 0.5 L 113.93265675054172 3.5 L 120.93265675054172 0 L 113.93265675054172 -3.5 L 113.93265675054172 -0.5 L 102.10500025027086 -0.5 Z"/><text text-anchor="middle" pointer-events="none" font-size="8px" fill="#000000" x="69.46632837527086" y="3" font-family="Helvetica Neue, Helvetica, Arial, sans-serif">APPARTIENT_A</text></g><g class="relationship" transform="translate(167.62154401808885 31.164177838236796) rotate(325.7671957464367)"><path class="b-outline" fill="#A5ABB6" stroke="none" d="M 25 0.5 L 44.72642973311406 0.5 L 44.72642973311406 -0.5 L 25 -0.5 Z M 96.50767973311406 0.5 L 116.23410946622812 0.5 L 116.23410946622812 3.5 L 123.23410946622812 0 L 116.23410946622812 -3.5 L 116.23410946622812 -0.5 L 96.50767973311406 -0.5 Z"/><text text-anchor="middle" pointer-events="none" font-size="8px" fill="#000000" x="70.61705473311406" y="3" font-family="Helvetica Neue, Helvetica, Arial, sans-serif">CONCERNE</text></g><g class="relationship" transform="translate(14.742657171720204 -124.77925778380269) rotate(273.82871862597824)"><path class="b-outline" fill="#A5ABB6" stroke="none" d="M 25 0.5 L 44.532580986313164 0.5 L 44.532580986313164 -0.5 L 25 -0.5 Z M 96.31383098631316 0.5 L 115.84641197262633 0.5 L 115.84641197262633 3.5 L 122.84641197262633 0 L 115.84641197262633 -3.5 L 115.84641197262633 -0.5 L 96.31383098631316 -0.5 Z"/><text text-anchor="middle" pointer-events="none" font-size="8px" fill="#000000" x="70.42320598631316" y="3" font-family="Helvetica Neue, Helvetica, Arial, sans-serif">CONCERNE</text></g><g class="relationship" transform="translate(-111.04435804620171 -69.50409324359012) rotate(226.084065315638)"><path class="b-outline" fill="#A5ABB6" stroke="none" d="M 25 0.5 L 44.37045288990775 0.5 L 44.37045288990775 -0.5 L 25 -0.5 Z M 96.15170288990775 0.5 L 115.5221557798155 0.5 L 115.5221557798155 3.5 L 122.5221557798155 0 L 115.5221557798155 -3.5 L 115.5221557798155 -0.5 L 96.15170288990775 -0.5 Z"/><text text-anchor="middle" pointer-events="none" font-size="8px" fill="#000000" x="70.26107788990775" y="3" transform="rotate(180 70.26107788990775 0)" font-family="Helvetica Neue, Helvetica, Arial, sans-serif">CONCERNE</text></g><g class="relationship" transform="translate(-146.861210098571 70.81448062385594) rotate(537.2013833489762)"><path class="b-outline" fill="#A5ABB6" stroke="none" d="M 25 0.5 L 43.797003860603624 0.5 L 43.797003860603624 -0.5 L 25 -0.5 Z M 95.57825386060362 0.5 L 114.37525772120725 0.5 L 114.37525772120725 3.5 L 121.37525772120725 0 L 114.37525772120725 -3.5 L 114.37525772120725 -0.5 L 95.57825386060362 -0.5 Z"/><text text-anchor="middle" pointer-events="none" font-size="8px" fill="#000000" x="69.68762886060362" y="3" transform="rotate(180 69.68762886060362 0)" font-family="Helvetica Neue, Helvetica, Arial, sans-serif">CONCERNE</text></g><g class="relationship" transform="translate(-47.87183632140322 183.8304729876316) rotate(476.6771673216469)"><path class="b-outline" fill="#A5ABB6" stroke="none" d="M 25 0.5 L 43.4702436838983 0.5 L 43.4702436838983 -0.5 L 25 -0.5 Z M 95.2514936838983 0.5 L 113.7217373677966 0.5 L 113.7217373677966 3.5 L 120.7217373677966 0 L 113.7217373677966 -3.5 L 113.7217373677966 -0.5 L 95.2514936838983 -0.5 Z"/><text text-anchor="middle" pointer-events="none" font-size="8px" fill="#000000" x="69.3608686838983" y="3" transform="rotate(180 69.3608686838983 0)" font-family="Helvetica Neue, Helvetica, Arial, sans-serif">CONCERNE</text></g></g><g class="layer nodes"><g class="node" aria-label="graph-node709" transform="translate(6.48454089554562,37.05388361380408)"><circle class="b-outline" cx="0" cy="0" r="25" fill="#C990C0" stroke="#b261a5" stroke-width="2px"/><text class="caption" text-anchor="middle" pointer-events="none" x="0" y="-5" font-size="10px" fill="#FFFFFF" font-family="Helvetica Neue, Helvetica, Arial, sans-serif"> CIAT DE</text><text class="caption" text-anchor="middle" pointer-events="none" x="0" y="5" font-size="10px" fill="#FFFFFF" font-family="Helvetica Neue, Helvetica, Arial, sans-serif"> POINTE A</text><text class="caption" text-anchor="middle" pointer-events="none" x="0" y="15" font-size="10px" fill="#FFFFFF" font-family="Helvetica Neue, Helvetica, Arial, sans-serif"> PI</text></g><g class="node" aria-label="graph-node114" transform="translate(101.58223514993203,162.73483194260135)"><circle class="b-outline" cx="0" cy="0" r="25" fill="#F79767" stroke="#f36924" stroke-width="2px"/><text class="caption" text-anchor="middle" pointer-events="none" x="0" y="5" font-size="10px" fill="#FFFFFF" font-family="Helvetica Neue, Helvetica, Arial, sans-serif"> Guadelo…</text></g><g class="node" aria-label="graph-node0" transform="translate(224.8074834831369,240.913335890243)"><circle class="b-outline" cx="0" cy="0" r="25" fill="#57C7E3" stroke="#23b3d7" stroke-width="2px"/><text class="caption" text-anchor="middle" pointer-events="none" x="0" y="5" font-size="10px" fill="#2A2C34" font-family="Helvetica Neue, Helvetica, Arial, sans-serif"> Guadelo…</text></g><g class="node" aria-label="graph-node1358" transform="translate(111.30969354795121,-66.01096231509378)"><circle class="b-outline" cx="0" cy="0" r="25" fill="#F16667" stroke="#eb2728" stroke-width="2px"/><text class="caption" text-anchor="middle" pointer-events="none" x="0" y="5" font-size="10px" fill="#FFFFFF" font-family="Helvetica Neue, Helvetica, Arial, sans-serif"> PN</text></g><g class="node" aria-label="graph-node64681" transform="translate(167.62154401808885,31.164177838236796)"><circle class="b-outline" cx="0" cy="0" r="25" fill="#D9C8AE" stroke="#c0a378" stroke-width="2px"/><text class="caption" text-anchor="middle" pointer-events="none" x="0" y="5" font-size="10px" fill="#2A2C34" font-family="Helvetica Neue, Helvetica, Arial, sans-serif"> 2</text></g><g class="node" aria-label="graph-node1444" transform="translate(290.17537213221556,-52.22593202989317)"><circle class="b-outline" cx="0" cy="0" r="25" fill="#8DCC93" stroke="#5db665" stroke-width="2px"/><text class="caption" text-anchor="middle" pointer-events="none" x="0" y="5" font-size="10px" fill="#2A2C34" font-family="Helvetica Neue, Helvetica, Arial, sans-serif"> 85</text></g><g class="node" aria-label="graph-node728164" transform="translate(14.742657171720204,-124.77925778380269)"><circle class="b-outline" cx="0" cy="0" r="25" fill="#D9C8AE" stroke="#c0a378" stroke-width="2px"/><text class="caption" text-anchor="middle" pointer-events="none" x="0" y="5" font-size="10px" fill="#2A2C34" font-family="Helvetica Neue, Helvetica, Arial, sans-serif"> 1</text></g><g class="node" aria-label="graph-node1420" transform="translate(24.614957129743217,-272.29569492461206)"><circle class="b-outline" cx="0" cy="0" r="25" fill="#8DCC93" stroke="#5db665" stroke-width="2px"/><text class="caption" text-anchor="middle" pointer-events="none" x="0" y="5" font-size="10px" fill="#2A2C34" font-family="Helvetica Neue, Helvetica, Arial, sans-serif"> 61</text></g><g class="node" aria-label="graph-node728154" transform="translate(-111.04435804620171,-69.50409324359012)"><circle class="b-outline" cx="0" cy="0" r="25" fill="#D9C8AE" stroke="#c0a378" stroke-width="2px"/><text class="caption" text-anchor="middle" pointer-events="none" x="0" y="5" font-size="10px" fill="#2A2C34" font-family="Helvetica Neue, Helvetica, Arial, sans-serif"> 0</text></g><g class="node" aria-label="graph-node1410" transform="translate(-213.3660492356707,-175.77289373579055)"><circle class="b-outline" cx="0" cy="0" r="25" fill="#8DCC93" stroke="#5db665" stroke-width="2px"/><text class="caption" text-anchor="middle" pointer-events="none" x="0" y="5" font-size="10px" fill="#2A2C34" font-family="Helvetica Neue, Helvetica, Arial, sans-serif"> 51</text></g><g class="node" aria-label="graph-node728170" transform="translate(-146.861210098571,70.81448062385594)"><circle class="b-outline" cx="0" cy="0" r="25" fill="#D9C8AE" stroke="#c0a378" stroke-width="2px"/><text class="caption" text-anchor="middle" pointer-events="none" x="0" y="5" font-size="10px" fill="#2A2C34" font-family="Helvetica Neue, Helvetica, Arial, sans-serif"> 313</text></g><g class="node" aria-label="graph-node1426" transform="translate(-293.0618884619946,77.96134840104331)"><circle class="b-outline" cx="0" cy="0" r="25" fill="#8DCC93" stroke="#5db665" stroke-width="2px"/><text class="caption" text-anchor="middle" pointer-events="none" x="0" y="5" font-size="10px" fill="#2A2C34" font-family="Helvetica Neue, Helvetica, Arial, sans-serif"> 67</text></g><g class="node" aria-label="graph-node728139" transform="translate(-47.87183632140322,183.8304729876316)"><circle class="b-outline" cx="0" cy="0" r="25" fill="#D9C8AE" stroke="#c0a378" stroke-width="2px"/><text class="caption" text-anchor="middle" pointer-events="none" x="0" y="5" font-size="10px" fill="#2A2C34" font-family="Helvetica Neue, Helvetica, Arial, sans-serif"> 81</text></g><g class="node" aria-label="graph-node1395" transform="translate(-113.29549735273308,314.04018583097803)"><circle class="b-outline" cx="0" cy="0" r="25" fill="#8DCC93" stroke="#5db665" stroke-width="2px"/><text class="caption" text-anchor="middle" pointer-events="none" x="0" y="5" font-size="10px" fill="#2A2C34" font-family="Helvetica Neue, Helvetica, Arial, sans-serif"> 36</text></g></g></svg>