<svg xmlns="http://www.w3.org/2000/svg" width="240.18292236328125" height="237.71426391601562" viewBox="-117.28775787353516 -119.7695083618164 240.18292236328125 237.71426391601562"><title>Neo4j Graph Visualization</title><desc>Created using Neo4j (http://www.neo4j.com/)</desc><g class="layer relationships"><g class="relationship" transform="translate(4.959613335186546 88.94474240725468) rotate(313.49913864377515)"><path class="b-outline" fill="#A5ABB6" stroke="none" d="M 25 0.5 L 26.98393074329482 0.5 L 26.98393074329482 -0.5 L 25 -0.5 Z M 95.21830574329482 0.5 L 97.20223648658964 0.5 L 97.20223648658964 3.5 L 104.20223648658964 0 L 97.20223648658964 -3.5 L 97.20223648658964 -0.5 L 95.21830574329482 -0.5 Z"/><text text-anchor="middle" pointer-events="none" font-size="8px" fill="#000000" x="61.10111824329482" y="3" font-family="Helvetica Neue, Helvetica, Arial, sans-serif">EST_ADJACENT</text></g><g class="relationship" transform="translate(4.959613335186546 88.94474240725468) rotate(267.95932720145464)"><path class="b-outline" fill="#A5ABB6" stroke="none" d="M 25 0.5 L 52.29696052639197 0.5 L 52.29696052639197 -0.5 L 25 -0.5 Z M 120.53133552639197 0.5 L 147.82829605278394 0.5 L 147.82829605278394 3.5 L 154.82829605278394 0 L 147.82829605278394 -3.5 L 147.82829605278394 -0.5 L 120.53133552639197 -0.5 Z"/><text text-anchor="middle" pointer-events="none" font-size="8px" fill="#000000" x="86.41414802639197" y="3" transform="rotate(180 86.41414802639197 0)" font-family="Helvetica Neue, Helvetica, Arial, sans-serif">EST_ADJACENT</text></g><g class="relationship" transform="translate(4.959613335186546 88.94474240725468) rotate(222.84080978355007)"><path class="b-outline" fill="#A5ABB6" stroke="none" d="M 25 0.5 L 25.968161920257373 0.5 L 25.968161920257373 -0.5 L 25 -0.5 Z M 94.20253692025737 0.5 L 95.17069884051475 0.5 L 95.17069884051475 3.5 L 102.17069884051475 0 L 95.17069884051475 -3.5 L 95.17069884051475 -0.5 L 94.20253692025737 -0.5 Z"/><text text-anchor="middle" pointer-events="none" font-size="8px" fill="#000000" x="60.08534942025737" y="3" transform="rotate(180 60.08534942025737 0)" font-family="Helvetica Neue, Helvetica, Arial, sans-serif">EST_ADJACENT</text></g><g class="relationship" transform="translate(93.89515506085972 -4.776585640835201) rotate(537.7211499865282)"><path class="b-outline" fill="#A5ABB6" stroke="none" d="M 25 0.5 L 53.54636720670224 0.5 L 53.54636720670224 -0.5 L 25 -0.5 Z M 121.78074220670224 0.5 L 150.3271094134045 0.5 L 150.3271094134045 3.5 L 157.3271094134045 0 L 150.3271094134045 -3.5 L 150.3271094134045 -0.5 L 121.78074220670224 -0.5 Z"/><text text-anchor="middle" pointer-events="none" font-size="8px" fill="#000000" x="87.66355470670224" y="3" transform="rotate(180 87.66355470670224 0)" font-family="Helvetica Neue, Helvetica, Arial, sans-serif">EST_ADJACENT</text></g><g class="relationship" transform="translate(-1.4438798105572686 -90.76950671278624) rotate(492.96500151601737)"><path class="b-outline" fill="#A5ABB6" stroke="none" d="M 25 0.5 L 26.093244026500685 0.5 L 26.093244026500685 -0.5 L 25 -0.5 Z M 94.32761902650068 0.5 L 95.42086305300137 0.5 L 95.42086305300137 3.5 L 102.42086305300137 0 L 95.42086305300137 -3.5 L 95.42086305300137 -0.5 L 94.32761902650068 -0.5 Z"/><text text-anchor="middle" pointer-events="none" font-size="8px" fill="#000000" x="60.210431526500685" y="3" transform="rotate(180 60.210431526500685 0)" font-family="Helvetica Neue, Helvetica, Arial, sans-serif">EST_ADJACENT</text></g><g class="relationship" transform="translate(-1.4438798105572686 -90.76950671278624) rotate(402.0495026965344)"><path class="b-outline" fill="#A5ABB6" stroke="none" d="M 25 0.5 L 26.578439385131475 0.5 L 26.578439385131475 -0.5 L 25 -0.5 Z M 94.81281438513147 0.5 L 96.39125377026295 0.5 L 96.39125377026295 3.5 L 103.39125377026295 0 L 96.39125377026295 -3.5 L 96.39125377026295 -0.5 L 94.81281438513147 -0.5 Z"/><text text-anchor="middle" pointer-events="none" font-size="8px" fill="#000000" x="60.695626885131475" y="3" font-family="Helvetica Neue, Helvetica, Arial, sans-serif">EST_ADJACENT</text></g></g><g class="layer nodes"><g class="node" aria-label="graph-node93" transform="translate(4.959613335186546,88.94474240725468)"><circle class="b-outline" cx="0" cy="0" r="25" fill="#F79767" stroke="#f36924" stroke-width="2px"/><text class="caption" text-anchor="middle" pointer-events="none" x="0" y="5" font-size="10px" fill="#FFFFFF" font-family="Helvetica Neue, Helvetica, Arial, sans-serif"> Paris</text></g><g class="node" aria-label="graph-node111" transform="translate(93.89515506085972,-4.776585640835201)"><circle class="b-outline" cx="0" cy="0" r="25" fill="#F79767" stroke="#f36924" stroke-width="2px"/><text class="caption" text-anchor="middle" pointer-events="none" x="0" y="5" font-size="10px" fill="#FFFFFF" font-family="Helvetica Neue, Helvetica, Arial, sans-serif"> Seine-S…</text></g><g class="node" aria-label="graph-node110" transform="translate(-1.4438798105572686,-90.76950671278624)"><circle class="b-outline" cx="0" cy="0" r="25" fill="#F79767" stroke="#f36924" stroke-width="2px"/><text class="caption" text-anchor="middle" pointer-events="none" x="0" y="5" font-size="10px" fill="#FFFFFF" font-family="Helvetica Neue, Helvetica, Arial, sans-serif"> Hauts-d…</text></g><g class="node" aria-label="graph-node112" transform="translate(-88.28775934693618,2.4732781461112063)"><circle class="b-outline" cx="0" cy="0" r="25" fill="#F79767" stroke="#f36924" stroke-width="2px"/><text class="caption" text-anchor="middle" pointer-events="none" x="0" y="5" font-size="10px" fill="#FFFFFF" font-family="Helvetica Neue, Helvetica, Arial, sans-serif"> Val-de-M…</text></g></g></svg>