<svg xmlns="http://www.w3.org/2000/svg" width="546.539794921875" height="550.61962890625" viewBox="-265.46826171875 -254.17681884765625 546.539794921875 550.61962890625"><title>Neo4j Graph Visualization</title><desc>Created using Neo4j (http://www.neo4j.com/)</desc><g class="layer relationships"><g class="relationship" transform="translate(116.24803578660331 95.32584271201603) rotate(342.46629598693085)"><path class="b-outline" fill="#A5ABB6" stroke="none" d="M 25 0.5 L 33.60347536867869 0.5 L 33.60347536867869 -0.5 L 25 -0.5 Z M 101.83785036867869 0.5 L 110.44132573735737 0.5 L 110.44132573735737 3.5 L 117.44132573735737 0 L 110.44132573735737 -3.5 L 110.44132573735737 -0.5 L 101.83785036867869 -0.5 Z"/><text text-anchor="middle" pointer-events="none" font-size="8px" fill="#000000" x="67.72066286867869" y="3" font-family="Helvetica Neue, Helvetica, Arial, sans-serif">EST_ADJACENT</text></g><g class="relationship" transform="translate(223.93670892528337 -93.13152883370343) rotate(439.05925509226495)"><path class="b-outline" fill="#A5ABB6" stroke="none" d="M 25 0.5 L 36.50227529812986 0.5 L 36.50227529812986 -0.5 L 25 -0.5 Z M 104.73665029812986 0.5 L 116.23892559625972 0.5 L 116.23892559625972 3.5 L 123.23892559625972 0 L 116.23892559625972 -3.5 L 116.23892559625972 -0.5 L 104.73665029812986 -0.5 Z"/><text text-anchor="middle" pointer-events="none" font-size="8px" fill="#000000" x="70.61946279812986" y="3" font-family="Helvetica Neue, Helvetica, Arial, sans-serif">EST_ADJACENT</text></g><g class="relationship" transform="translate(120.38228328447731 -197.89810393937336) rotate(405.33338100549366)"><path class="b-outline" fill="#A5ABB6" stroke="none" d="M 25 0.5 L 36.03665545671409 0.5 L 36.03665545671409 -0.5 L 25 -0.5 Z M 104.27103045671409 0.5 L 115.30768591342817 0.5 L 115.30768591342817 3.5 L 122.30768591342817 0 L 115.30768591342817 -3.5 L 115.30768591342817 -0.5 L 104.27103045671409 -0.5 Z"/><text text-anchor="middle" pointer-events="none" font-size="8px" fill="#000000" x="70.15384295671409" y="3" font-family="Helvetica Neue, Helvetica, Arial, sans-serif">EST_ADJACENT</text></g><g class="relationship" transform="translate(-23.69765073721229 -225.1768262543116) rotate(370.7209381584124)"><path class="b-outline" fill="#A5ABB6" stroke="none" d="M 25 0.5 L 35.702584865355064 0.5 L 35.702584865355064 -0.5 L 25 -0.5 Z M 103.93695986535506 0.5 L 114.63954473071013 0.5 L 114.63954473071013 3.5 L 121.63954473071013 0 L 114.63954473071013 -3.5 L 114.63954473071013 -0.5 L 103.93695986535506 -0.5 Z"/><text text-anchor="middle" pointer-events="none" font-size="8px" fill="#000000" x="69.81977236535506" y="3" font-family="Helvetica Neue, Helvetica, Arial, sans-serif">EST_ADJACENT</text></g><g class="relationship" transform="translate(-159.54727043638812 -171.47229832681563) rotate(338.4299553073532)"><path class="b-outline" fill="#A5ABB6" stroke="none" d="M 25 0.5 L 35.42269114914258 0.5 L 35.42269114914258 -0.5 L 25 -0.5 Z M 103.65706614914258 0.5 L 114.07975729828516 0.5 L 114.07975729828516 3.5 L 121.07975729828516 0 L 114.07975729828516 -3.5 L 114.07975729828516 -0.5 L 103.65706614914258 -0.5 Z"/><text text-anchor="middle" pointer-events="none" font-size="8px" fill="#000000" x="69.53987864914258" y="3" font-family="Helvetica Neue, Helvetica, Arial, sans-serif">EST_ADJACENT</text></g><g class="relationship" transform="translate(-159.54727043638812 -171.47229832681563) rotate(481.91999150946623)"><path class="b-outline" fill="#A5ABB6" stroke="none" d="M 25 0.5 L 35.12345560980597 0.5 L 35.12345560980597 -0.5 L 25 -0.5 Z M 103.35783060980597 0.5 L 113.48128621961195 0.5 L 113.48128621961195 3.5 L 120.48128621961195 0 L 113.48128621961195 -3.5 L 113.48128621961195 -0.5 L 103.35783060980597 -0.5 Z"/><text text-anchor="middle" pointer-events="none" font-size="8px" fill="#000000" x="69.24064310980597" y="3" transform="rotate(180 69.24064310980597 0)" font-family="Helvetica Neue, Helvetica, Arial, sans-serif">EST_ADJACENT</text></g><g class="relationship" transform="translate(-183.37730274609868 86.63579781548835) rotate(248.47768512249365)"><path class="b-outline" fill="#A5ABB6" stroke="none" d="M 25 0.5 L 34.74070119679172 0.5 L 34.74070119679172 -0.5 L 25 -0.5 Z M 102.97507619679172 0.5 L 112.71577739358344 0.5 L 112.71577739358344 3.5 L 119.71577739358344 0 L 112.71577739358344 -3.5 L 112.71577739358344 -0.5 L 102.97507619679172 -0.5 Z"/><text text-anchor="middle" pointer-events="none" font-size="8px" fill="#000000" x="68.85788869679172" y="3" transform="rotate(180 68.85788869679172 0)" font-family="Helvetica Neue, Helvetica, Arial, sans-serif">EST_ADJACENT</text></g><g class="relationship" transform="translate(-183.37730274609868 86.63579781548835) rotate(425.7808299489453)"><path class="b-outline" fill="#A5ABB6" stroke="none" d="M 25 0.5 L 34.49971030555915 0.5 L 34.49971030555915 -0.5 L 25 -0.5 Z M 102.73408530555915 0.5 L 112.2337956111183 0.5 L 112.2337956111183 3.5 L 119.2337956111183 0 L 112.2337956111183 -3.5 L 112.2337956111183 -0.5 L 102.73408530555915 -0.5 Z"/><text text-anchor="middle" pointer-events="none" font-size="8px" fill="#000000" x="68.61689780555915" y="3" font-family="Helvetica Neue, Helvetica, Arial, sans-serif">EST_ADJACENT</text></g><g class="relationship" transform="translate(10.068436038538652 267.4427674112452) rotate(200.14883639066545)"><path class="b-outline" fill="#A5ABB6" stroke="none" d="M 25 0.5 L 33.897953315643434 0.5 L 33.897953315643434 -0.5 L 25 -0.5 Z M 102.13232831564343 0.5 L 111.03028163128687 0.5 L 111.03028163128687 3.5 L 118.03028163128687 0 L 111.03028163128687 -3.5 L 111.03028163128687 -0.5 L 102.13232831564343 -0.5 Z"/><text text-anchor="middle" pointer-events="none" font-size="8px" fill="#000000" x="68.01514081564343" y="3" transform="rotate(180 68.01514081564343 0)" font-family="Helvetica Neue, Helvetica, Arial, sans-serif">EST_ADJACENT</text></g></g><g class="layer nodes"><g class="node" aria-label="graph-node93" transform="translate(116.24803578660331,95.32584271201603)"><circle class="b-outline" cx="0" cy="0" r="25" fill="#F79767" stroke="#f36924" stroke-width="2px"/><text class="caption" text-anchor="middle" pointer-events="none" x="0" y="5" font-size="10px" fill="#FFFFFF" font-family="Helvetica Neue, Helvetica, Arial, sans-serif"> Paris</text></g><g class="node" aria-label="graph-node30" transform="translate(10.068436038538652,267.4427674112452)"><circle class="b-outline" cx="0" cy="0" r="25" fill="#F79767" stroke="#f36924" stroke-width="2px"/><text class="caption" text-anchor="middle" pointer-events="none" x="0" y="5" font-size="10px" fill="#FFFFFF" font-family="Helvetica Neue, Helvetica, Arial, sans-serif"> Bouches…</text></g><g class="node" aria-label="graph-node110" transform="translate(252.07152282541566,52.41300493084009)"><circle class="b-outline" cx="0" cy="0" r="25" fill="#F79767" stroke="#f36924" stroke-width="2px"/><text class="caption" text-anchor="middle" pointer-events="none" x="0" y="5" font-size="10px" fill="#FFFFFF" font-family="Helvetica Neue, Helvetica, Arial, sans-serif"> Hauts-d…</text></g><g class="node" aria-label="graph-node109" transform="translate(223.93670892528337,-93.13152883370343)"><circle class="b-outline" cx="0" cy="0" r="25" fill="#F79767" stroke="#f36924" stroke-width="2px"/><text class="caption" text-anchor="middle" pointer-events="none" x="0" y="5" font-size="10px" fill="#FFFFFF" font-family="Helvetica Neue, Helvetica, Arial, sans-serif"> Essonne</text></g><g class="node" aria-label="graph-node63" transform="translate(120.38228328447731,-197.89810393937336)"><circle class="b-outline" cx="0" cy="0" r="25" fill="#F79767" stroke="#f36924" stroke-width="2px"/><text class="caption" text-anchor="middle" pointer-events="none" x="0" y="5" font-size="10px" fill="#FFFFFF" font-family="Helvetica Neue, Helvetica, Arial, sans-serif"> Loiret</text></g><g class="node" aria-label="graph-node35" transform="translate(-23.69765073721229,-225.1768262543116)"><circle class="b-outline" cx="0" cy="0" r="25" fill="#F79767" stroke="#f36924" stroke-width="2px"/><text class="caption" text-anchor="middle" pointer-events="none" x="0" y="5" font-size="10px" fill="#FFFFFF" font-family="Helvetica Neue, Helvetica, Arial, sans-serif"> Cher</text></g><g class="node" aria-label="graph-node20" transform="translate(-159.54727043638812,-171.47229832681563)"><circle class="b-outline" cx="0" cy="0" r="25" fill="#F79767" stroke="#f36924" stroke-width="2px"/><text class="caption" text-anchor="middle" pointer-events="none" x="0" y="5" font-size="10px" fill="#FFFFFF" font-family="Helvetica Neue, Helvetica, Arial, sans-serif"> Allier</text></g><g class="node" aria-label="graph-node60" transform="translate(-236.4682490226158,-47.98963681739658)"><circle class="b-outline" cx="0" cy="0" r="25" fill="#F79767" stroke="#f36924" stroke-width="2px"/><text class="caption" text-anchor="middle" pointer-events="none" x="0" y="5" font-size="10px" fill="#FFFFFF" font-family="Helvetica Neue, Helvetica, Arial, sans-serif"> Loire</text></g><g class="node" aria-label="graph-node24" transform="translate(-183.37730274609868,86.63579781548835)"><circle class="b-outline" cx="0" cy="0" r="25" fill="#F79767" stroke="#f36924" stroke-width="2px"/><text class="caption" text-anchor="middle" pointer-events="none" x="0" y="5" font-size="10px" fill="#FFFFFF" font-family="Helvetica Neue, Helvetica, Arial, sans-serif"> Ardèche</text></g><g class="node" aria-label="graph-node48" transform="translate(-124.2085340514806,218.17455487040593)"><circle class="b-outline" cx="0" cy="0" r="25" fill="#F79767" stroke="#f36924" stroke-width="2px"/><text class="caption" text-anchor="middle" pointer-events="none" x="0" y="5" font-size="10px" fill="#FFFFFF" font-family="Helvetica Neue, Helvetica, Arial, sans-serif"> Gard</text></g></g></svg>