<svg xmlns="http://www.w3.org/2000/svg" width="853.6936645507812" height="847.013427734375" viewBox="-431.3838195800781 -369.1976623535156 853.6936645507812 847.013427734375"><title>Neo4j Graph Visualization</title><desc>Created using Neo4j (http://www.neo4j.com/)</desc><g class="layer relationships"><g class="relationship" transform="translate(-10.51789721210254 63.43498174138315) rotate(435.701212202225)"><path class="b-outline" fill="#A5ABB6" stroke="none" d="M 25 0.5 L 34.120886481370746 0.5 L 34.120886481370746 -0.5 L 25 -0.5 Z M 92.12869898137075 0.5 L 101.24958546274149 0.5 L 101.24958546274149 3.5 L 108.24958546274149 0 L 101.24958546274149 -3.5 L 101.24958546274149 -0.5 L 92.12869898137075 -0.5 Z"/><text text-anchor="middle" pointer-events="none" font-size="8px" fill="#000000" x="63.124792731370746" y="3" font-family="Helvetica Neue, Helvetica, Arial, sans-serif">ENREGISTRE</text></g><g class="relationship" transform="translate(-10.51789721210254 63.43498174138315) rotate(441.37735584928396)"><path class="b-outline" fill="#A5ABB6" stroke="none" d="M 25 0.5 L 82.74514464310978 0.5 L 82.74514464310978 -0.5 L 25 -0.5 Z M 140.75295714310977 0.5 L 198.49810178621956 0.5 L 198.49810178621956 3.5 L 205.49810178621956 0 L 198.49810178621956 -3.5 L 198.49810178621956 -0.5 L 140.75295714310977 -0.5 Z"/><text text-anchor="middle" pointer-events="none" font-size="8px" fill="#000000" x="111.74905089310978" y="3" font-family="Helvetica Neue, Helvetica, Arial, sans-serif">ENREGISTRE</text></g><g class="relationship" transform="translate(-10.51789721210254 63.43498174138315) rotate(417.41513335541526)"><path class="b-outline" fill="#A5ABB6" stroke="none" d="M 25 0.5 L 88.87468129702918 0.5 L 88.87468129702918 -0.5 L 25 -0.5 Z M 146.88249379702918 0.5 L 210.75717509405837 0.5 L 210.75717509405837 3.5 L 217.75717509405837 0 L 210.75717509405837 -3.5 L 210.75717509405837 -0.5 L 146.88249379702918 -0.5 Z"/><text text-anchor="middle" pointer-events="none" font-size="8px" fill="#000000" x="117.87858754702918" y="3" font-family="Helvetica Neue, Helvetica, Arial, sans-serif">ENREGISTRE</text></g><g class="relationship" transform="translate(-10.51789721210254 63.43498174138315) rotate(374.6715940947274)"><path class="b-outline" fill="#A5ABB6" stroke="none" d="M 25 0.5 L 40.897535322569524 0.5 L 40.897535322569524 -0.5 L 25 -0.5 Z M 98.90534782256952 0.5 L 114.80288314513905 0.5 L 114.80288314513905 3.5 L 121.80288314513905 0 L 114.80288314513905 -3.5 L 114.80288314513905 -0.5 L 98.90534782256952 -0.5 Z"/><text text-anchor="middle" pointer-events="none" font-size="8px" fill="#000000" x="69.90144157256952" y="3" font-family="Helvetica Neue, Helvetica, Arial, sans-serif">ENREGISTRE</text></g><g class="relationship" transform="translate(-10.51789721210254 63.43498174138315) rotate(369.5831845157993)"><path class="b-outline" fill="#A5ABB6" stroke="none" d="M 25 0.5 L 89.35986032099092 0.5 L 89.35986032099092 -0.5 L 25 -0.5 Z M 147.36767282099092 0.5 L 211.72753314198184 0.5 L 211.72753314198184 3.5 L 218.72753314198184 0 L 211.72753314198184 -3.5 L 211.72753314198184 -0.5 L 147.36767282099092 -0.5 Z"/><text text-anchor="middle" pointer-events="none" font-size="8px" fill="#000000" x="118.36376657099092" y="3" font-family="Helvetica Neue, Helvetica, Arial, sans-serif">ENREGISTRE</text></g><g class="relationship" transform="translate(-10.51789721210254 63.43498174138315) rotate(345.57506964948664)"><path class="b-outline" fill="#A5ABB6" stroke="none" d="M 25 0.5 L 78.10334971945466 0.5 L 78.10334971945466 -0.5 L 25 -0.5 Z M 136.11116221945466 0.5 L 189.2145119389093 0.5 L 189.2145119389093 3.5 L 196.2145119389093 0 L 189.2145119389093 -3.5 L 189.2145119389093 -0.5 L 136.11116221945466 -0.5 Z"/><text text-anchor="middle" pointer-events="none" font-size="8px" fill="#000000" x="107.10725596945466" y="3" font-family="Helvetica Neue, Helvetica, Arial, sans-serif">ENREGISTRE</text></g><g class="relationship" transform="translate(-10.51789721210254 63.43498174138315) rotate(326.7406452398041)"><path class="b-outline" fill="#A5ABB6" stroke="none" d="M 25 0.5 L 37.93114071787073 0.5 L 37.93114071787073 -0.5 L 25 -0.5 Z M 95.93895321787073 0.5 L 108.87009393574147 0.5 L 108.87009393574147 3.5 L 115.87009393574147 0 L 108.87009393574147 -3.5 L 108.87009393574147 -0.5 L 95.93895321787073 -0.5 Z"/><text text-anchor="middle" pointer-events="none" font-size="8px" fill="#000000" x="66.93504696787073" y="3" font-family="Helvetica Neue, Helvetica, Arial, sans-serif">ENREGISTRE</text></g><g class="relationship" transform="translate(-10.51789721210254 63.43498174138315) rotate(319.2663575643596)"><path class="b-outline" fill="#A5ABB6" stroke="none" d="M 25 0.5 L 85.61279815829806 0.5 L 85.61279815829806 -0.5 L 25 -0.5 Z M 143.62061065829806 0.5 L 204.23340881659612 0.5 L 204.23340881659612 3.5 L 211.23340881659612 0 L 204.23340881659612 -3.5 L 204.23340881659612 -0.5 L 143.62061065829806 -0.5 Z"/><text text-anchor="middle" pointer-events="none" font-size="8px" fill="#000000" x="114.61670440829806" y="3" font-family="Helvetica Neue, Helvetica, Arial, sans-serif">ENREGISTRE</text></g><g class="relationship" transform="translate(-10.51789721210254 63.43498174138315) rotate(294.7838543946116)"><path class="b-outline" fill="#A5ABB6" stroke="none" d="M 25 0.5 L 83.49427168490604 0.5 L 83.49427168490604 -0.5 L 25 -0.5 Z M 141.50208418490604 0.5 L 199.99635586981208 0.5 L 199.99635586981208 3.5 L 206.99635586981208 0 L 199.99635586981208 -3.5 L 199.99635586981208 -0.5 L 141.50208418490604 -0.5 Z"/><text text-anchor="middle" pointer-events="none" font-size="8px" fill="#000000" x="112.49817793490604" y="3" font-family="Helvetica Neue, Helvetica, Arial, sans-serif">ENREGISTRE</text></g><g class="relationship" transform="translate(-10.51789721210254 63.43498174138315) rotate(283.17580045622003)"><path class="b-outline" fill="#A5ABB6" stroke="none" d="M 25 0.5 L 37.645896861160935 0.5 L 37.645896861160935 -0.5 L 25 -0.5 Z M 95.65370936116094 0.5 L 108.29960622232187 0.5 L 108.29960622232187 3.5 L 115.29960622232187 0 L 108.29960622232187 -3.5 L 108.29960622232187 -0.5 L 95.65370936116094 -0.5 Z"/><text text-anchor="middle" pointer-events="none" font-size="8px" fill="#000000" x="66.64980311116094" y="3" font-family="Helvetica Neue, Helvetica, Arial, sans-serif">ENREGISTRE</text></g><g class="relationship" transform="translate(-10.51789721210254 63.43498174138315) rotate(269.83152588738204)"><path class="b-outline" fill="#A5ABB6" stroke="none" d="M 25 0.5 L 82.25939841349359 0.5 L 82.25939841349359 -0.5 L 25 -0.5 Z M 140.26721091349359 0.5 L 197.52660932698717 0.5 L 197.52660932698717 3.5 L 204.52660932698717 0 L 197.52660932698717 -3.5 L 197.52660932698717 -0.5 L 140.26721091349359 -0.5 Z"/><text text-anchor="middle" pointer-events="none" font-size="8px" fill="#000000" x="111.26330466349359" y="3" transform="rotate(180 111.26330466349359 0)" font-family="Helvetica Neue, Helvetica, Arial, sans-serif">ENREGISTRE</text></g><g class="relationship" transform="translate(-10.51789721210254 63.43498174138315) rotate(245.16073461593345)"><path class="b-outline" fill="#A5ABB6" stroke="none" d="M 25 0.5 L 85.02478843182088 0.5 L 85.02478843182088 -0.5 L 25 -0.5 Z M 143.03260093182087 0.5 L 203.05738936364176 0.5 L 203.05738936364176 3.5 L 210.05738936364176 0 L 203.05738936364176 -3.5 L 203.05738936364176 -0.5 L 143.03260093182087 -0.5 Z"/><text text-anchor="middle" pointer-events="none" font-size="8px" fill="#000000" x="114.02869468182088" y="3" transform="rotate(180 114.02869468182088 0)" font-family="Helvetica Neue, Helvetica, Arial, sans-serif">ENREGISTRE</text></g><g class="relationship" transform="translate(-10.51789721210254 63.43498174138315) rotate(235.3774663309618)"><path class="b-outline" fill="#A5ABB6" stroke="none" d="M 25 0.5 L 38.30986200754786 0.5 L 38.30986200754786 -0.5 L 25 -0.5 Z M 96.31767450754786 0.5 L 109.62753651509573 0.5 L 109.62753651509573 3.5 L 116.62753651509573 0 L 109.62753651509573 -3.5 L 109.62753651509573 -0.5 L 96.31767450754786 -0.5 Z"/><text text-anchor="middle" pointer-events="none" font-size="8px" fill="#000000" x="67.31376825754786" y="3" transform="rotate(180 67.31376825754786 0)" font-family="Helvetica Neue, Helvetica, Arial, sans-serif">ENREGISTRE</text></g><g class="relationship" transform="translate(-10.51789721210254 63.43498174138315) rotate(219.27016518923892)"><path class="b-outline" fill="#A5ABB6" stroke="none" d="M 25 0.5 L 80.73645576138446 0.5 L 80.73645576138446 -0.5 L 25 -0.5 Z M 138.74426826138446 0.5 L 194.48072402276892 0.5 L 194.48072402276892 3.5 L 201.48072402276892 0 L 194.48072402276892 -3.5 L 194.48072402276892 -0.5 L 138.74426826138446 -0.5 Z"/><text text-anchor="middle" pointer-events="none" font-size="8px" fill="#000000" x="109.74036201138446" y="3" transform="rotate(180 109.74036201138446 0)" font-family="Helvetica Neue, Helvetica, Arial, sans-serif">ENREGISTRE</text></g><g class="relationship" transform="translate(-10.51789721210254 63.43498174138315) rotate(194.41872289404603)"><path class="b-outline" fill="#A5ABB6" stroke="none" d="M 25 0.5 L 84.54014227819611 0.5 L 84.54014227819611 -0.5 L 25 -0.5 Z M 142.54795477819613 0.5 L 202.08809705639223 0.5 L 202.08809705639223 3.5 L 209.08809705639223 0 L 202.08809705639223 -3.5 L 202.08809705639223 -0.5 L 142.54795477819613 -0.5 Z"/><text text-anchor="middle" pointer-events="none" font-size="8px" fill="#000000" x="113.54404852819611" y="3" transform="rotate(180 113.54404852819611 0)" font-family="Helvetica Neue, Helvetica, Arial, sans-serif">ENREGISTRE</text></g><g class="relationship" transform="translate(-10.51789721210254 63.43498174138315) rotate(193.21570765972285)"><path class="b-outline" fill="#A5ABB6" stroke="none" d="M 25 0.5 L 35.49944328792557 0.5 L 35.49944328792557 -0.5 L 25 -0.5 Z M 93.50725578792557 0.5 L 104.00669907585115 0.5 L 104.00669907585115 3.5 L 111.00669907585115 0 L 104.00669907585115 -3.5 L 104.00669907585115 -0.5 L 93.50725578792557 -0.5 Z"/><text text-anchor="middle" pointer-events="none" font-size="8px" fill="#000000" x="64.50334953792557" y="3" transform="rotate(180 64.50334953792557 0)" font-family="Helvetica Neue, Helvetica, Arial, sans-serif">ENREGISTRE</text></g><g class="relationship" transform="translate(-10.51789721210254 63.43498174138315) rotate(503.0181505222135)"><path class="b-outline" fill="#A5ABB6" stroke="none" d="M 25 0.5 L 86.66110084175223 0.5 L 86.66110084175223 -0.5 L 25 -0.5 Z M 144.66891334175222 0.5 L 206.33001418350446 0.5 L 206.33001418350446 3.5 L 213.33001418350446 0 L 206.33001418350446 -3.5 L 206.33001418350446 -0.5 L 144.66891334175222 -0.5 Z"/><text text-anchor="middle" pointer-events="none" font-size="8px" fill="#000000" x="115.66500709175223" y="3" transform="rotate(180 115.66500709175223 0)" font-family="Helvetica Neue, Helvetica, Arial, sans-serif">ENREGISTRE</text></g><g class="relationship" transform="translate(-10.51789721210254 63.43498174138315) rotate(527.165059526754)"><path class="b-outline" fill="#A5ABB6" stroke="none" d="M 25 0.5 L 67.84479061030699 0.5 L 67.84479061030699 -0.5 L 25 -0.5 Z M 125.85260311030699 0.5 L 168.69739372061397 0.5 L 168.69739372061397 3.5 L 175.69739372061397 0 L 168.69739372061397 -3.5 L 168.69739372061397 -0.5 L 125.85260311030699 -0.5 Z"/><text text-anchor="middle" pointer-events="none" font-size="8px" fill="#000000" x="96.84869686030699" y="3" transform="rotate(180 96.84869686030699 0)" font-family="Helvetica Neue, Helvetica, Arial, sans-serif">ENREGISTRE</text></g><g class="relationship" transform="translate(-10.51789721210254 63.43498174138315) rotate(486.8986070367781)"><path class="b-outline" fill="#A5ABB6" stroke="none" d="M 25 0.5 L 45.25316770031698 0.5 L 45.25316770031698 -0.5 L 25 -0.5 Z M 103.26098020031698 0.5 L 123.51414790063396 0.5 L 123.51414790063396 3.5 L 130.51414790063396 0 L 123.51414790063396 -3.5 L 123.51414790063396 -0.5 L 103.26098020031698 -0.5 Z"/><text text-anchor="middle" pointer-events="none" font-size="8px" fill="#000000" x="74.25707395031698" y="3" transform="rotate(180 74.25707395031698 0)" font-family="Helvetica Neue, Helvetica, Arial, sans-serif">ENREGISTRE</text></g><g class="relationship" transform="translate(-10.51789721210254 63.43498174138315) rotate(466.24219033742895)"><path class="b-outline" fill="#A5ABB6" stroke="none" d="M 25 0.5 L 81.3860187699531 0.5 L 81.3860187699531 -0.5 L 25 -0.5 Z M 139.3938312699531 0.5 L 195.7798500399062 0.5 L 195.7798500399062 3.5 L 202.7798500399062 0 L 195.7798500399062 -3.5 L 195.7798500399062 -0.5 L 139.3938312699531 -0.5 Z"/><text text-anchor="middle" pointer-events="none" font-size="8px" fill="#000000" x="110.3899250199531" y="3" transform="rotate(180 110.3899250199531 0)" font-family="Helvetica Neue, Helvetica, Arial, sans-serif">ENREGISTRE</text></g><g class="relationship" transform="translate(22.391887034046597 192.55662255679553) rotate(358.5302921745306)"><path class="b-outline" fill="#A5ABB6" stroke="none" d="M 25 0.5 L 48.5615648607444 0.5 L 48.5615648607444 -0.5 L 25 -0.5 Z M 100.3428148607444 0.5 L 123.9043797214888 0.5 L 123.9043797214888 3.5 L 130.9043797214888 0 L 123.9043797214888 -3.5 L 123.9043797214888 -0.5 L 100.3428148607444 -0.5 Z"/><text text-anchor="middle" pointer-events="none" font-size="8px" fill="#000000" x="74.4521898607444" y="3" font-family="Helvetica Neue, Helvetica, Arial, sans-serif">CONCERNE</text></g><g class="relationship" transform="translate(24.039784959456597 291.32781078604603) rotate(430.14665836887445)"><path class="b-outline" fill="#A5ABB6" stroke="none" d="M 25 0.5 L 53.108505596186774 0.5 L 53.108505596186774 -0.5 L 25 -0.5 Z M 104.88975559618677 0.5 L 132.99826119237355 0.5 L 132.99826119237355 3.5 L 139.99826119237355 0 L 132.99826119237355 -3.5 L 132.99826119237355 -0.5 L 104.88975559618677 -0.5 Z"/><text text-anchor="middle" pointer-events="none" font-size="8px" fill="#000000" x="78.99913059618677" y="3" font-family="Helvetica Neue, Helvetica, Arial, sans-serif">CONCERNE</text></g><g class="relationship" transform="translate(120.2185550695517 267.9808839356194) rotate(406.01757908262255)"><path class="b-outline" fill="#A5ABB6" stroke="none" d="M 25 0.5 L 56.10671254010036 0.5 L 56.10671254010036 -0.5 L 25 -0.5 Z M 107.88796254010036 0.5 L 138.99467508020072 0.5 L 138.99467508020072 3.5 L 145.99467508020072 0 L 138.99467508020072 -3.5 L 138.99467508020072 -0.5 L 107.88796254010036 -0.5 Z"/><text text-anchor="middle" pointer-events="none" font-size="8px" fill="#000000" x="81.99733754010036" y="3" font-family="Helvetica Neue, Helvetica, Arial, sans-serif">CONCERNE</text></g><g class="relationship" transform="translate(131.49824908303742 100.61697592139934) rotate(391.87794069736765)"><path class="b-outline" fill="#A5ABB6" stroke="none" d="M 25 0.5 L 56.77386681221323 0.5 L 56.77386681221323 -0.5 L 25 -0.5 Z M 108.55511681221323 0.5 L 140.32898362442646 0.5 L 140.32898362442646 3.5 L 147.32898362442646 0 L 140.32898362442646 -3.5 L 140.32898362442646 -0.5 L 108.55511681221323 -0.5 Z"/><text text-anchor="middle" pointer-events="none" font-size="8px" fill="#000000" x="82.66449181221323" y="3" font-family="Helvetica Neue, Helvetica, Arial, sans-serif">CONCERNE</text></g><g class="relationship" transform="translate(229.80840329504903 104.01058643215914) rotate(373.4906197980844)"><path class="b-outline" fill="#A5ABB6" stroke="none" d="M 25 0.5 L 54.67972324715956 0.5 L 54.67972324715956 -0.5 L 25 -0.5 Z M 106.46097324715956 0.5 L 136.14069649431912 0.5 L 136.14069649431912 3.5 L 143.14069649431912 0 L 136.14069649431912 -3.5 L 136.14069649431912 -0.5 L 106.46097324715956 -0.5 Z"/><text text-anchor="middle" pointer-events="none" font-size="8px" fill="#000000" x="80.57034824715956" y="3" font-family="Helvetica Neue, Helvetica, Arial, sans-serif">CONCERNE</text></g><g class="relationship" transform="translate(203.72279633863138 8.327944810784375) rotate(352.6450261222526)"><path class="b-outline" fill="#A5ABB6" stroke="none" d="M 25 0.5 L 55.968803811086985 0.5 L 55.968803811086985 -0.5 L 25 -0.5 Z M 107.75005381108699 0.5 L 138.71885762217397 0.5 L 138.71885762217397 3.5 L 145.71885762217397 0 L 138.71885762217397 -3.5 L 138.71885762217397 -0.5 L 107.75005381108699 -0.5 Z"/><text text-anchor="middle" pointer-events="none" font-size="8px" fill="#000000" x="81.85942881108699" y="3" font-family="Helvetica Neue, Helvetica, Arial, sans-serif">CONCERNE</text></g><g class="relationship" transform="translate(107.27719977598879 -13.822370601489542) rotate(335.9737259521828)"><path class="b-outline" fill="#A5ABB6" stroke="none" d="M 25 0.5 L 58.70911960474125 0.5 L 58.70911960474125 -0.5 L 25 -0.5 Z M 110.49036960474125 0.5 L 144.1994892094825 0.5 L 144.1994892094825 3.5 L 151.1994892094825 0 L 144.1994892094825 -3.5 L 144.1994892094825 -0.5 L 110.49036960474125 -0.5 Z"/><text text-anchor="middle" pointer-events="none" font-size="8px" fill="#000000" x="84.59974460474125" y="3" font-family="Helvetica Neue, Helvetica, Arial, sans-serif">CONCERNE</text></g><g class="relationship" transform="translate(168.48827827591867 -90.71758093034407) rotate(319.0743573362414)"><path class="b-outline" fill="#A5ABB6" stroke="none" d="M 25 0.5 L 56.860054698586694 0.5 L 56.860054698586694 -0.5 L 25 -0.5 Z M 108.6413046985867 0.5 L 140.5013593971734 0.5 L 140.5013593971734 3.5 L 147.5013593971734 0 L 140.5013593971734 -3.5 L 140.5013593971734 -0.5 L 108.6413046985867 -0.5 Z"/><text text-anchor="middle" pointer-events="none" font-size="8px" fill="#000000" x="82.7506796985867" y="3" font-family="Helvetica Neue, Helvetica, Arial, sans-serif">CONCERNE</text></g><g class="relationship" transform="translate(86.73410740302161 -147.19349861018839) rotate(299.2029059147223)"><path class="b-outline" fill="#A5ABB6" stroke="none" d="M 25 0.5 L 57.24469600308397 0.5 L 57.24469600308397 -0.5 L 25 -0.5 Z M 109.02594600308397 0.5 L 141.27064200616795 0.5 L 141.27064200616795 3.5 L 148.27064200616795 0 L 141.27064200616795 -3.5 L 141.27064200616795 -0.5 L 109.02594600308397 -0.5 Z"/><text text-anchor="middle" pointer-events="none" font-size="8px" fill="#000000" x="83.13532100308397" y="3" font-family="Helvetica Neue, Helvetica, Arial, sans-serif">CONCERNE</text></g><g class="relationship" transform="translate(21.461945546357647 -73.17127420351399) rotate(282.3752028906705)"><path class="b-outline" fill="#A5ABB6" stroke="none" d="M 25 0.5 L 57.821222127062384 0.5 L 57.821222127062384 -0.5 L 25 -0.5 Z M 109.60247212706238 0.5 L 142.42369425412477 0.5 L 142.42369425412477 3.5 L 149.42369425412477 0 L 142.42369425412477 -3.5 L 142.42369425412477 -0.5 L 109.60247212706238 -0.5 Z"/><text text-anchor="middle" pointer-events="none" font-size="8px" fill="#000000" x="83.71184712706238" y="3" font-family="Helvetica Neue, Helvetica, Arial, sans-serif">CONCERNE</text></g><g class="relationship" transform="translate(-11.192802701372715 -166.09063532940036) rotate(268.09437025700333)"><path class="b-outline" fill="#A5ABB6" stroke="none" d="M 25 0.5 L 57.71105879328583 0.5 L 57.71105879328583 -0.5 L 25 -0.5 Z M 109.49230879328583 0.5 L 142.20336758657166 0.5 L 142.20336758657166 3.5 L 149.20336758657166 0 L 142.20336758657166 -3.5 L 142.20336758657166 -0.5 L 109.49230879328583 -0.5 Z"/><text text-anchor="middle" pointer-events="none" font-size="8px" fill="#000000" x="83.60168379328583" y="3" transform="rotate(180 83.60168379328583 0)" font-family="Helvetica Neue, Helvetica, Arial, sans-serif">CONCERNE</text></g><g class="relationship" transform="translate(-109.25941687451908 -149.87720400806552) rotate(247.30472914955908)"><path class="b-outline" fill="#A5ABB6" stroke="none" d="M 25 0.5 L 57.20569697064663 0.5 L 57.20569697064663 -0.5 L 25 -0.5 Z M 108.98694697064663 0.5 L 141.19264394129326 0.5 L 141.19264394129326 3.5 L 148.19264394129326 0 L 141.19264394129326 -3.5 L 141.19264394129326 -0.5 L 108.98694697064663 -0.5 Z"/><text text-anchor="middle" pointer-events="none" font-size="8px" fill="#000000" x="83.09632197064663" y="3" transform="rotate(180 83.09632197064663 0)" font-family="Helvetica Neue, Helvetica, Arial, sans-serif">CONCERNE</text></g><g class="relationship" transform="translate(-90.98605061281202 -53.112156308483435) rotate(231.1098330930829)"><path class="b-outline" fill="#A5ABB6" stroke="none" d="M 25 0.5 L 58.15296464701447 0.5 L 58.15296464701447 -0.5 L 25 -0.5 Z M 109.93421464701447 0.5 L 143.08717929402894 0.5 L 143.08717929402894 3.5 L 150.08717929402894 0 L 143.08717929402894 -3.5 L 143.08717929402894 -0.5 L 109.93421464701447 -0.5 Z"/><text text-anchor="middle" pointer-events="none" font-size="8px" fill="#000000" x="84.04358964701447" y="3" transform="rotate(180 84.04358964701447 0)" font-family="Helvetica Neue, Helvetica, Arial, sans-serif">CONCERNE</text></g><g class="relationship" transform="translate(-185.85246033878335 -79.92229685671805) rotate(216.09139003523194)"><path class="b-outline" fill="#A5ABB6" stroke="none" d="M 25 0.5 L 56.98662193189898 0.5 L 56.98662193189898 -0.5 L 25 -0.5 Z M 108.76787193189898 0.5 L 140.75449386379796 0.5 L 140.75449386379796 3.5 L 147.75449386379796 0 L 140.75449386379796 -3.5 L 140.75449386379796 -0.5 L 108.76787193189898 -0.5 Z"/><text text-anchor="middle" pointer-events="none" font-size="8px" fill="#000000" x="82.87724693189898" y="3" transform="rotate(180 82.87724693189898 0)" font-family="Helvetica Neue, Helvetica, Arial, sans-serif">CONCERNE</text></g><g class="relationship" transform="translate(-237.23265075101295 5.1455512134219425) rotate(194.64353332402368)"><path class="b-outline" fill="#A5ABB6" stroke="none" d="M 25 0.5 L 55.9572783090494 0.5 L 55.9572783090494 -0.5 L 25 -0.5 Z M 107.7385283090494 0.5 L 138.6958066180988 0.5 L 138.6958066180988 3.5 L 145.6958066180988 0 L 138.6958066180988 -3.5 L 138.6958066180988 -0.5 L 107.7385283090494 -0.5 Z"/><text text-anchor="middle" pointer-events="none" font-size="8px" fill="#000000" x="81.8479033090494" y="3" transform="rotate(180 81.8479033090494 0)" font-family="Helvetica Neue, Helvetica, Arial, sans-serif">CONCERNE</text></g><g class="relationship" transform="translate(-142.92263074953047 32.341433690511934) rotate(532.0236251680778)"><path class="b-outline" fill="#A5ABB6" stroke="none" d="M 25 0.5 L 60.93429271411303 0.5 L 60.93429271411303 -0.5 L 25 -0.5 Z M 112.71554271411303 0.5 L 148.64983542822606 0.5 L 148.64983542822606 3.5 L 155.64983542822606 0 L 148.64983542822606 -3.5 L 148.64983542822606 -0.5 L 112.71554271411303 -0.5 Z"/><text text-anchor="middle" pointer-events="none" font-size="8px" fill="#000000" x="86.82491771411303" y="3" transform="rotate(180 86.82491771411303 0)" font-family="Helvetica Neue, Helvetica, Arial, sans-serif">CONCERNE</text></g><g class="relationship" transform="translate(-200.90213695202152 206.80526080703356) rotate(534.8543780565522)"><path class="b-outline" fill="#A5ABB6" stroke="none" d="M 25 0.5 L 61.69839273397524 0.5 L 61.69839273397524 -0.5 L 25 -0.5 Z M 113.47964273397524 0.5 L 150.17803546795048 0.5 L 150.17803546795048 3.5 L 157.17803546795048 0 L 150.17803546795048 -3.5 L 150.17803546795048 -0.5 L 113.47964273397524 -0.5 Z"/><text text-anchor="middle" pointer-events="none" font-size="8px" fill="#000000" x="87.58901773397524" y="3" transform="rotate(180 87.58901773397524 0)" font-family="Helvetica Neue, Helvetica, Arial, sans-serif">CONCERNE</text></g><g class="relationship" transform="translate(-206.20067927787477 108.01852858600543) rotate(479.2712857167353)"><path class="b-outline" fill="#A5ABB6" stroke="none" d="M 25 0.5 L 54.63675180625329 0.5 L 54.63675180625329 -0.5 L 25 -0.5 Z M 106.41800180625329 0.5 L 136.05475361250657 0.5 L 136.05475361250657 3.5 L 143.05475361250657 0 L 136.05475361250657 -3.5 L 136.05475361250657 -0.5 L 106.41800180625329 -0.5 Z"/><text text-anchor="middle" pointer-events="none" font-size="8px" fill="#000000" x="80.52737680625329" y="3" transform="rotate(180 80.52737680625329 0)" font-family="Helvetica Neue, Helvetica, Arial, sans-serif">CONCERNE</text></g><g class="relationship" transform="translate(-103.88871343820688 187.7995300440699) rotate(478.0698870314014)"><path class="b-outline" fill="#A5ABB6" stroke="none" d="M 25 0.5 L 57.31344819958774 0.5 L 57.31344819958774 -0.5 L 25 -0.5 Z M 109.09469819958774 0.5 L 141.40814639917548 0.5 L 141.40814639917548 3.5 L 148.40814639917548 0 L 141.40814639917548 -3.5 L 141.40814639917548 -0.5 L 109.09469819958774 -0.5 Z"/><text text-anchor="middle" pointer-events="none" font-size="8px" fill="#000000" x="83.20407319958774" y="3" transform="rotate(180 83.20407319958774 0)" font-family="Helvetica Neue, Helvetica, Arial, sans-serif">CONCERNE</text></g><g class="relationship" transform="translate(-74.22750044140491 282.1236795301967) rotate(454.36406968925996)"><path class="b-outline" fill="#A5ABB6" stroke="none" d="M 25 0.5 L 54.19777088345144 0.5 L 54.19777088345144 -0.5 L 25 -0.5 Z M 105.97902088345144 0.5 L 135.17679176690288 0.5 L 135.17679176690288 3.5 L 142.17679176690288 0 L 135.17679176690288 -3.5 L 135.17679176690288 -0.5 L 105.97902088345144 -0.5 Z"/><text text-anchor="middle" pointer-events="none" font-size="8px" fill="#000000" x="80.08839588345144" y="3" transform="rotate(180 80.08839588345144 0)" font-family="Helvetica Neue, Helvetica, Arial, sans-serif">CONCERNE</text></g></g><g class="layer nodes"><g class="node" aria-label="graph-node119" transform="translate(-10.51789721210254,63.43498174138315)"><circle class="b-outline" cx="0" cy="0" r="25" fill="#C990C0" stroke="#b261a5" stroke-width="2px"/><text class="caption" text-anchor="middle" pointer-events="none" x="0" y="0" font-size="10px" fill="#FFFFFF" font-family="Helvetica Neue, Helvetica, Arial, sans-serif"> DIDPAF</text><text class="caption" text-anchor="middle" pointer-events="none" x="0" y="10" font-size="10px" fill="#FFFFFF" font-family="Helvetica Neue, Helvetica, Arial, sans-serif"> PREV…</text></g><g class="node" aria-label="graph-node1573" transform="translate(22.391887034046597,192.55662255679553)"><circle class="b-outline" cx="0" cy="0" r="25" fill="#D9C8AE" stroke="#c0a378" stroke-width="2px"/><text class="caption" text-anchor="middle" pointer-events="none" x="0" y="5" font-size="10px" fill="#2A2C34" font-family="Helvetica Neue, Helvetica, Arial, sans-serif"> 57</text></g><g class="node" aria-label="graph-node1466" transform="translate(178.24497810706148,188.5579203512426)"><circle class="b-outline" cx="0" cy="0" r="25" fill="#8DCC93" stroke="#5db665" stroke-width="2px"/><text class="caption" text-anchor="middle" pointer-events="none" x="0" y="5" font-size="10px" fill="#2A2C34" font-family="Helvetica Neue, Helvetica, Arial, sans-serif"> 107</text></g><g class="node" aria-label="graph-node193615" transform="translate(24.039784959456597,291.32781078604603)"><circle class="b-outline" cx="0" cy="0" r="25" fill="#D9C8AE" stroke="#c0a378" stroke-width="2px"/><text class="caption" text-anchor="middle" pointer-events="none" x="0" y="5" font-size="10px" fill="#2A2C34" font-family="Helvetica Neue, Helvetica, Arial, sans-serif"> 1</text></g><g class="node" aria-label="graph-node1443" transform="translate(80.07545842974119,446.5194004268457)"><circle class="b-outline" cx="0" cy="0" r="25" fill="#8DCC93" stroke="#5db665" stroke-width="2px"/><text class="caption" text-anchor="middle" pointer-events="none" x="0" y="5" font-size="10px" fill="#2A2C34" font-family="Helvetica Neue, Helvetica, Arial, sans-serif"> 84</text></g><g class="node" aria-label="graph-node193596" transform="translate(120.2185550695517,267.9808839356194)"><circle class="b-outline" cx="0" cy="0" r="25" fill="#D9C8AE" stroke="#c0a378" stroke-width="2px"/><text class="caption" text-anchor="middle" pointer-events="none" x="0" y="5" font-size="10px" fill="#2A2C34" font-family="Helvetica Neue, Helvetica, Arial, sans-serif"> 0</text></g><g class="node" aria-label="graph-node1424" transform="translate(238.96369283965225,391.020597693996)"><circle class="b-outline" cx="0" cy="0" r="25" fill="#8DCC93" stroke="#5db665" stroke-width="2px"/><text class="caption" text-anchor="middle" pointer-events="none" x="0" y="5" font-size="10px" fill="#2A2C34" font-family="Helvetica Neue, Helvetica, Arial, sans-serif"> 65</text></g><g class="node" aria-label="graph-node193557" transform="translate(131.49824908303742,100.61697592139934)"><circle class="b-outline" cx="0" cy="0" r="25" fill="#D9C8AE" stroke="#c0a378" stroke-width="2px"/><text class="caption" text-anchor="middle" pointer-events="none" x="0" y="5" font-size="10px" fill="#2A2C34" font-family="Helvetica Neue, Helvetica, Arial, sans-serif"> 0</text></g><g class="node" aria-label="graph-node1385" transform="translate(277.8357270912868,191.62588277788768)"><circle class="b-outline" cx="0" cy="0" r="25" fill="#8DCC93" stroke="#5db665" stroke-width="2px"/><text class="caption" text-anchor="middle" pointer-events="none" x="0" y="5" font-size="10px" fill="#2A2C34" font-family="Helvetica Neue, Helvetica, Arial, sans-serif"> 26</text></g><g class="node" aria-label="graph-node193544" transform="translate(229.80840329504903,104.01058643215914)"><circle class="b-outline" cx="0" cy="0" r="25" fill="#D9C8AE" stroke="#c0a378" stroke-width="2px"/><text class="caption" text-anchor="middle" pointer-events="none" x="0" y="5" font-size="10px" fill="#2A2C34" font-family="Helvetica Neue, Helvetica, Arial, sans-serif"> 0</text></g><g class="node" aria-label="graph-node1372" transform="translate(393.3097828722782,143.23548533499329)"><circle class="b-outline" cx="0" cy="0" r="25" fill="#8DCC93" stroke="#5db665" stroke-width="2px"/><text class="caption" text-anchor="middle" pointer-events="none" x="0" y="5" font-size="10px" fill="#2A2C34" font-family="Helvetica Neue, Helvetica, Arial, sans-serif"> 13</text></g><g class="node" aria-label="graph-node193565" transform="translate(203.72279633863138,8.327944810784375)"><circle class="b-outline" cx="0" cy="0" r="25" fill="#D9C8AE" stroke="#c0a378" stroke-width="2px"/><text class="caption" text-anchor="middle" pointer-events="none" x="0" y="5" font-size="10px" fill="#2A2C34" font-family="Helvetica Neue, Helvetica, Arial, sans-serif"> 0</text></g><g class="node" aria-label="graph-node1393" transform="translate(373.03699127123684,-13.526842814442864)"><circle class="b-outline" cx="0" cy="0" r="25" fill="#8DCC93" stroke="#5db665" stroke-width="2px"/><text class="caption" text-anchor="middle" pointer-events="none" x="0" y="5" font-size="10px" fill="#2A2C34" font-family="Helvetica Neue, Helvetica, Arial, sans-serif"> 34</text></g><g class="node" aria-label="graph-node193604" transform="translate(107.27719977598879,-13.822370601489542)"><circle class="b-outline" cx="0" cy="0" r="25" fill="#D9C8AE" stroke="#c0a378" stroke-width="2px"/><text class="caption" text-anchor="middle" pointer-events="none" x="0" y="5" font-size="10px" fill="#2A2C34" font-family="Helvetica Neue, Helvetica, Arial, sans-serif"> 3</text></g><g class="node" aria-label="graph-node1432" transform="translate(268.21056171698905,-85.56296588790701)"><circle class="b-outline" cx="0" cy="0" r="25" fill="#8DCC93" stroke="#5db665" stroke-width="2px"/><text class="caption" text-anchor="middle" pointer-events="none" x="0" y="5" font-size="10px" fill="#2A2C34" font-family="Helvetica Neue, Helvetica, Arial, sans-serif"> 73</text></g><g class="node" aria-label="graph-node193637" transform="translate(168.48827827591867,-90.71758093034407)"><circle class="b-outline" cx="0" cy="0" r="25" fill="#D9C8AE" stroke="#c0a378" stroke-width="2px"/><text class="caption" text-anchor="middle" pointer-events="none" x="0" y="5" font-size="10px" fill="#2A2C34" font-family="Helvetica Neue, Helvetica, Arial, sans-serif"> 0</text></g><g class="node" aria-label="graph-node1465" transform="translate(298.82346833471865,-203.7196040370534)"><circle class="b-outline" cx="0" cy="0" r="25" fill="#8DCC93" stroke="#5db665" stroke-width="2px"/><text class="caption" text-anchor="middle" pointer-events="none" x="0" y="5" font-size="10px" fill="#2A2C34" font-family="Helvetica Neue, Helvetica, Arial, sans-serif"> 106</text></g><g class="node" aria-label="graph-node193571" transform="translate(86.73410740302161,-147.19349861018839)"><circle class="b-outline" cx="0" cy="0" r="25" fill="#D9C8AE" stroke="#c0a378" stroke-width="2px"/><text class="caption" text-anchor="middle" pointer-events="none" x="0" y="5" font-size="10px" fill="#2A2C34" font-family="Helvetica Neue, Helvetica, Arial, sans-serif"> 0</text></g><g class="node" aria-label="graph-node1399" transform="translate(171.27353479606114,-298.440979902561)"><circle class="b-outline" cx="0" cy="0" r="25" fill="#8DCC93" stroke="#5db665" stroke-width="2px"/><text class="caption" text-anchor="middle" pointer-events="none" x="0" y="5" font-size="10px" fill="#2A2C34" font-family="Helvetica Neue, Helvetica, Arial, sans-serif"> 40</text></g><g class="node" aria-label="graph-node193619" transform="translate(21.461945546357647,-73.17127420351399)"><circle class="b-outline" cx="0" cy="0" r="25" fill="#D9C8AE" stroke="#c0a378" stroke-width="2px"/><text class="caption" text-anchor="middle" pointer-events="none" x="0" y="5" font-size="10px" fill="#2A2C34" font-family="Helvetica Neue, Helvetica, Arial, sans-serif"> 0</text></g><g class="node" aria-label="graph-node1447" transform="translate(58.84314303909333,-243.5422552750142)"><circle class="b-outline" cx="0" cy="0" r="25" fill="#8DCC93" stroke="#5db665" stroke-width="2px"/><text class="caption" text-anchor="middle" pointer-events="none" x="0" y="5" font-size="10px" fill="#2A2C34" font-family="Helvetica Neue, Helvetica, Arial, sans-serif"> 88</text></g><g class="node" aria-label="graph-node193588" transform="translate(-11.192802701372715,-166.09063532940036)"><circle class="b-outline" cx="0" cy="0" r="25" fill="#D9C8AE" stroke="#c0a378" stroke-width="2px"/><text class="caption" text-anchor="middle" pointer-events="none" x="0" y="5" font-size="10px" fill="#2A2C34" font-family="Helvetica Neue, Helvetica, Arial, sans-serif"> 0</text></g><g class="node" aria-label="graph-node1416" transform="translate(-16.98565378747009,-340.19766033068083)"><circle class="b-outline" cx="0" cy="0" r="25" fill="#8DCC93" stroke="#5db665" stroke-width="2px"/><text class="caption" text-anchor="middle" pointer-events="none" x="0" y="5" font-size="10px" fill="#2A2C34" font-family="Helvetica Neue, Helvetica, Arial, sans-serif"> 57</text></g><g class="node" aria-label="graph-node193552" transform="translate(-109.25941687451908,-149.87720400806552)"><circle class="b-outline" cx="0" cy="0" r="25" fill="#D9C8AE" stroke="#c0a378" stroke-width="2px"/><text class="caption" text-anchor="middle" pointer-events="none" x="0" y="5" font-size="10px" fill="#2A2C34" font-family="Helvetica Neue, Helvetica, Arial, sans-serif"> 0</text></g><g class="node" aria-label="graph-node1380" transform="translate(-176.0823165748962,-309.6595309125418)"><circle class="b-outline" cx="0" cy="0" r="25" fill="#8DCC93" stroke="#5db665" stroke-width="2px"/><text class="caption" text-anchor="middle" pointer-events="none" x="0" y="5" font-size="10px" fill="#2A2C34" font-family="Helvetica Neue, Helvetica, Arial, sans-serif"> 21</text></g><g class="node" aria-label="graph-node193566" transform="translate(-90.98605061281202,-53.112156308483435)"><circle class="b-outline" cx="0" cy="0" r="25" fill="#D9C8AE" stroke="#c0a378" stroke-width="2px"/><text class="caption" text-anchor="middle" pointer-events="none" x="0" y="5" font-size="10px" fill="#2A2C34" font-family="Helvetica Neue, Helvetica, Arial, sans-serif"> 0</text></g><g class="node" aria-label="graph-node1394" transform="translate(-200.91094446942495,-189.3914212894475)"><circle class="b-outline" cx="0" cy="0" r="25" fill="#8DCC93" stroke="#5db665" stroke-width="2px"/><text class="caption" text-anchor="middle" pointer-events="none" x="0" y="5" font-size="10px" fill="#2A2C34" font-family="Helvetica Neue, Helvetica, Arial, sans-serif"> 35</text></g><g class="node" aria-label="graph-node193561" transform="translate(-185.85246033878335,-79.92229685671805)"><circle class="b-outline" cx="0" cy="0" r="25" fill="#D9C8AE" stroke="#c0a378" stroke-width="2px"/><text class="caption" text-anchor="middle" pointer-events="none" x="0" y="5" font-size="10px" fill="#2A2C34" font-family="Helvetica Neue, Helvetica, Arial, sans-serif"> 0</text></g><g class="node" aria-label="graph-node1389" transform="translate(-325.4516378600147,-181.68763862656)"><circle class="b-outline" cx="0" cy="0" r="25" fill="#8DCC93" stroke="#5db665" stroke-width="2px"/><text class="caption" text-anchor="middle" pointer-events="none" x="0" y="5" font-size="10px" fill="#2A2C34" font-family="Helvetica Neue, Helvetica, Arial, sans-serif"> 30</text></g><g class="node" aria-label="graph-node193613" transform="translate(-237.23265075101295,5.1455512134219425)"><circle class="b-outline" cx="0" cy="0" r="25" fill="#D9C8AE" stroke="#c0a378" stroke-width="2px"/><text class="caption" text-anchor="middle" pointer-events="none" x="0" y="5" font-size="10px" fill="#2A2C34" font-family="Helvetica Neue, Helvetica, Arial, sans-serif"> 8</text></g><g class="node" aria-label="graph-node1441" transform="translate(-402.3838084550646,-38.007125482408334)"><circle class="b-outline" cx="0" cy="0" r="25" fill="#8DCC93" stroke="#5db665" stroke-width="2px"/><text class="caption" text-anchor="middle" pointer-events="none" x="0" y="5" font-size="10px" fill="#2A2C34" font-family="Helvetica Neue, Helvetica, Arial, sans-serif"> 82</text></g><g class="node" aria-label="graph-node193578" transform="translate(-142.92263074953047,32.341433690511934)"><circle class="b-outline" cx="0" cy="0" r="25" fill="#D9C8AE" stroke="#c0a378" stroke-width="2px"/><text class="caption" text-anchor="middle" pointer-events="none" x="0" y="5" font-size="10px" fill="#2A2C34" font-family="Helvetica Neue, Helvetica, Arial, sans-serif"> 0</text></g><g class="node" aria-label="graph-node1406" transform="translate(-321.8247459997148,57.409265652109795)"><circle class="b-outline" cx="0" cy="0" r="25" fill="#8DCC93" stroke="#5db665" stroke-width="2px"/><text class="caption" text-anchor="middle" pointer-events="none" x="0" y="5" font-size="10px" fill="#2A2C34" font-family="Helvetica Neue, Helvetica, Arial, sans-serif"> 47</text></g><g class="node" aria-label="graph-node193591" transform="translate(-200.90213695202152,206.80526080703356)"><circle class="b-outline" cx="0" cy="0" r="25" fill="#D9C8AE" stroke="#c0a378" stroke-width="2px"/><text class="caption" text-anchor="middle" pointer-events="none" x="0" y="5" font-size="10px" fill="#2A2C34" font-family="Helvetica Neue, Helvetica, Arial, sans-serif"> 0</text></g><g class="node" aria-label="graph-node1419" transform="translate(-382.3459889802065,223.1443295729068)"><circle class="b-outline" cx="0" cy="0" r="25" fill="#8DCC93" stroke="#5db665" stroke-width="2px"/><text class="caption" text-anchor="middle" pointer-events="none" x="0" y="5" font-size="10px" fill="#2A2C34" font-family="Helvetica Neue, Helvetica, Arial, sans-serif"> 60</text></g><g class="node" aria-label="graph-node193620" transform="translate(-206.20067927787477,108.01852858600543)"><circle class="b-outline" cx="0" cy="0" r="25" fill="#D9C8AE" stroke="#c0a378" stroke-width="2px"/><text class="caption" text-anchor="middle" pointer-events="none" x="0" y="5" font-size="10px" fill="#2A2C34" font-family="Helvetica Neue, Helvetica, Arial, sans-serif"> 0</text></g><g class="node" aria-label="graph-node1448" transform="translate(-288.3702687842128,254.61511371717484)"><circle class="b-outline" cx="0" cy="0" r="25" fill="#8DCC93" stroke="#5db665" stroke-width="2px"/><text class="caption" text-anchor="middle" pointer-events="none" x="0" y="5" font-size="10px" fill="#2A2C34" font-family="Helvetica Neue, Helvetica, Arial, sans-serif"> 89</text></g><g class="node" aria-label="graph-node193592" transform="translate(-103.88871343820688,187.7995300440699)"><circle class="b-outline" cx="0" cy="0" r="25" fill="#D9C8AE" stroke="#c0a378" stroke-width="2px"/><text class="caption" text-anchor="middle" pointer-events="none" x="0" y="5" font-size="10px" fill="#2A2C34" font-family="Helvetica Neue, Helvetica, Arial, sans-serif"> 0</text></g><g class="node" aria-label="graph-node1420" transform="translate(-185.48560396302207,340.81042081423436)"><circle class="b-outline" cx="0" cy="0" r="25" fill="#8DCC93" stroke="#5db665" stroke-width="2px"/><text class="caption" text-anchor="middle" pointer-events="none" x="0" y="5" font-size="10px" fill="#2A2C34" font-family="Helvetica Neue, Helvetica, Arial, sans-serif"> 61</text></g><g class="node" aria-label="graph-node193555" transform="translate(-74.22750044140491,282.1236795301967)"><circle class="b-outline" cx="0" cy="0" r="25" fill="#D9C8AE" stroke="#c0a378" stroke-width="2px"/><text class="caption" text-anchor="middle" pointer-events="none" x="0" y="5" font-size="10px" fill="#2A2C34" font-family="Helvetica Neue, Helvetica, Arial, sans-serif"> 0</text></g><g class="node" aria-label="graph-node1383" transform="translate(-86.94861095865186,448.81577008245534)"><circle class="b-outline" cx="0" cy="0" r="25" fill="#8DCC93" stroke="#5db665" stroke-width="2px"/><text class="caption" text-anchor="middle" pointer-events="none" x="0" y="5" font-size="10px" fill="#2A2C34" font-family="Helvetica Neue, Helvetica, Arial, sans-serif"> 24</text></g></g></svg>